<svg width="33" height="24" viewBox="0 0 33 24" fill="none" xmlns="http://www.w3.org/2000/svg">
<g id="solar:like-linear">
<path id="Vector" d="M15.9959 2.13202L15.5528 1.45702L15.9946 2.13202H15.9959ZM4.20337 10.234L5.21882 10.17C5.19542 9.97793 5.07233 9.79986 4.87512 9.67279C4.67791 9.54572 4.42174 9.47941 4.15981 9.48765C3.89789 9.49589 3.65034 9.57803 3.4686 9.71702C3.28685 9.85601 3.18487 10.0412 3.18384 10.234H4.20337ZM27.6336 12.057L26.6738 16.137L28.6844 16.393L29.6427 12.313L27.6336 12.057ZM18.1302 21.25H11.8104V22.75H18.1302V21.25ZM10.572 20.413L9.46823 11.02L7.43596 11.149L8.54114 20.542L10.572 20.413ZM26.6738 16.137C25.9846 19.067 22.3932 21.25 18.1302 21.25V22.75C23.3311 22.75 27.8171 20.081 28.6844 16.393L26.6738 16.137ZM18.1438 5.10002L17.2425 9.14502L19.2544 9.38702L20.1556 5.34302L18.1438 5.10002ZM9.89643 10.246L11.8526 9.00602L10.5204 7.87002L8.56696 9.11002L9.89643 10.246ZM15.4101 4.97202L16.0571 3.13802L14.0833 2.76202L13.4362 4.59502L15.4101 4.97202ZM17.0332 2.77802L17.2303 2.82502L17.8542 1.39702L17.6571 1.35002L17.0332 2.77802ZM14.4299 6.81602C14.8546 6.23201 15.1836 5.61302 15.4101 4.97202L13.4362 4.59502C13.2504 5.12165 12.9803 5.63021 12.6315 6.11002L14.4313 6.81602H14.4299ZM17.2303 2.82502C17.4242 2.86826 17.6002 2.94685 17.7418 3.05349C17.8835 3.16013 17.9862 3.29137 18.0404 3.43502L20.0143 3.05902C19.8738 2.67052 19.6021 2.31445 19.2245 2.02388C18.8468 1.73331 18.3755 1.51768 17.8542 1.39702L17.2303 2.82502ZM16.0571 3.13802C16.0842 3.06599 16.1323 2.99916 16.198 2.94218C16.2638 2.88519 16.3456 2.83941 16.4377 2.80802L15.5528 1.45702C14.8296 1.71302 14.2859 2.18702 14.0833 2.76202L16.0571 3.13802ZM16.4377 2.80802C16.6238 2.74265 16.8367 2.73192 17.0332 2.77802L17.6571 1.35002C16.9629 1.18634 16.2098 1.22463 15.5528 1.45702L16.4364 2.80802H16.4377ZM19.3658 10.984H26.4074V9.48402H19.3658V10.984ZM6.54013 21.406L5.21882 10.17L3.18792 10.299L4.50651 21.535L6.54013 21.406ZM5.2229 21.513V10.234H3.18384V21.513H5.2229ZM4.50651 21.535C4.50236 21.4987 4.50989 21.4621 4.52599 21.4276C4.5421 21.3931 4.56777 21.3615 4.60139 21.3347C4.63501 21.3079 4.67584 21.2865 4.72129 21.2719C4.76674 21.2573 4.81581 21.2499 4.86538 21.25V22.75C5.85229 22.75 6.62442 22.128 6.54013 21.406L4.50787 21.536L4.50651 21.535ZM20.1556 5.34302C20.3252 4.58274 20.277 3.80481 20.0143 3.05902L18.0404 3.43602C18.232 3.97934 18.2672 4.54611 18.1438 5.10002L20.1556 5.34302ZM11.8104 21.25C11.4992 21.2496 11.1994 21.1635 10.9701 21.0085C10.7409 20.8536 10.5989 20.6412 10.572 20.413L8.54114 20.542C8.61187 21.1442 8.98685 21.705 9.59208 22.1137C10.1973 22.5225 10.9888 22.7495 11.8104 22.75V21.25ZM11.8526 9.00602C12.7769 8.42002 13.772 7.72302 14.4313 6.81602L12.6315 6.11002C12.1612 6.75902 11.4121 7.30602 10.5204 7.87002L11.8526 9.00602ZM29.6427 12.313C29.7246 11.966 29.7023 11.61 29.5774 11.27C29.4526 10.93 29.2282 10.6142 28.92 10.3447C28.6118 10.0752 28.2272 9.85848 27.7932 9.70982C27.3591 9.56115 26.8862 9.48408 26.4074 9.48402V10.984C27.1782 10.984 27.7668 11.496 27.6336 12.057L29.6427 12.313ZM4.86538 21.25C5.06385 21.25 5.2229 21.368 5.2229 21.513H3.18384C3.18384 22.195 3.93557 22.75 4.86538 22.75V21.25ZM17.2425 9.14502C17.1918 9.3716 17.2088 9.60357 17.2921 9.82486C17.3755 10.0461 17.5233 10.2514 17.7253 10.4265C17.9274 10.6015 18.1787 10.7422 18.462 10.8386C18.7453 10.9351 19.0537 10.984 19.3658 10.984V9.48402C19.3493 9.48407 19.3329 9.48243 19.3178 9.47729C19.3028 9.47215 19.2895 9.46464 19.2788 9.45528C19.2682 9.44592 19.2605 9.43495 19.2562 9.42315C19.252 9.41136 19.2514 9.39902 19.2544 9.38702L17.2425 9.14502ZM9.46823 11.02C9.45143 10.8752 9.48025 10.7295 9.55493 10.595C9.62961 10.4604 9.74665 10.3408 9.89643 10.246L8.56424 9.10902C8.17005 9.35905 7.8622 9.67437 7.66605 10.029C7.46989 10.3837 7.39103 10.7676 7.43596 11.149L9.46823 11.019V11.02Z" fill="#FFE45E"/>
</g>
</svg>
